<mxfile host="Electron" agent="Mozilla/5.0 (Windows NT 10.0; Win64; x64) AppleWebKit/537.36 (KHTML, like Gecko) draw.io/24.7.8 Chrome/128.0.6613.36 Electron/32.0.1 Safari/537.36" version="24.7.8">
  <diagram id="0zOPFdGbkJYaPKIrssZw" name="Page-1">
    <mxGraphModel dx="2125" dy="1255" grid="1" gridSize="10" guides="1" tooltips="1" connect="1" arrows="1" fold="1" page="1" pageScale="1" pageWidth="827" pageHeight="1169" math="0" shadow="0">
      <root>
        <mxCell id="0" />
        <mxCell id="1" parent="0" />
        <mxCell id="tMVz5PTUaDFEXMntaGFA-150" value="&lt;span style=&quot;font-size: 42px;&quot;&gt;\textwidth&lt;/span&gt;&lt;br&gt;&lt;font style=&quot;font-size: 20px;&quot;&gt;150mm = [591]&lt;/font&gt;" style="rounded=0;whiteSpace=wrap;html=1;labelBackgroundColor=none;strokeColor=#000000;strokeWidth=1;fontFamily=CMU Sans Serif;fontSize=9;fillColor=none;fontColor=#808080;labelPosition=center;verticalLabelPosition=bottom;align=center;verticalAlign=top;" parent="1" vertex="1">
          <mxGeometry x="79" y="80" width="591" height="310" as="geometry" />
        </mxCell>
        <mxCell id="tMVz5PTUaDFEXMntaGFA-152" value="" style="rounded=0;whiteSpace=wrap;html=1;labelBackgroundColor=none;strokeColor=none;strokeWidth=1;fontFamily=CMU Sans Serif;fontSize=9;fillColor=none;fontColor=#808080;labelPosition=center;verticalLabelPosition=bottom;align=center;verticalAlign=top;" parent="1" vertex="1">
          <mxGeometry x="79" y="160" width="591" height="179" as="geometry" />
        </mxCell>
        <mxCell id="109" value="&lt;font style=&quot;font-size: 20px;&quot;&gt;&lt;span style=&quot;font-size: 42px;&quot;&gt;A4 paper&lt;/span&gt;&lt;br&gt;&lt;font style=&quot;font-size: 20px;&quot;&gt;210mm = [827]&amp;nbsp;&lt;/font&gt;(1 cm = [39.4])&lt;br&gt;&lt;/font&gt;" style="rounded=0;whiteSpace=wrap;html=1;labelBackgroundColor=none;strokeColor=#000000;strokeWidth=1;fontFamily=CMU Sans Serif;fontSize=9;fillColor=none;fontColor=#B3B3B3;" parent="1" vertex="1">
          <mxGeometry y="650" width="827" height="100" as="geometry" />
        </mxCell>
        <mxCell id="112" value="&lt;span style=&quot;font-size: 42px;&quot;&gt;\textwidth&lt;/span&gt;&lt;br&gt;&lt;font style=&quot;font-size: 20px;&quot;&gt;150mm = [591]&lt;/font&gt;" style="rounded=0;whiteSpace=wrap;html=1;labelBackgroundColor=none;strokeColor=#000000;strokeWidth=1;fontFamily=CMU Sans Serif;fontSize=9;fillColor=#FFE8F3;fontColor=#808080;" parent="1" vertex="1">
          <mxGeometry x="138" y="750" width="591" height="100" as="geometry" />
        </mxCell>
        <mxCell id="114" value="&lt;font style=&quot;font-size: 20px;&quot;&gt;25mm&lt;/font&gt;" style="rounded=0;whiteSpace=wrap;html=1;labelBackgroundColor=none;strokeColor=#000000;strokeWidth=1;fontFamily=CMU Sans Serif;fontSize=9;fillColor=none;fontColor=#B3B3B3;" parent="1" vertex="1">
          <mxGeometry x="729" y="750" width="98" height="400" as="geometry" />
        </mxCell>
        <mxCell id="115" value="&lt;font style=&quot;font-size: 20px;&quot;&gt;35mm&lt;/font&gt;" style="rounded=0;whiteSpace=wrap;html=1;labelBackgroundColor=none;strokeColor=#000000;strokeWidth=1;fontFamily=CMU Sans Serif;fontSize=9;fillColor=none;fontColor=#B3B3B3;" parent="1" vertex="1">
          <mxGeometry y="750" width="138" height="400" as="geometry" />
        </mxCell>
        <mxCell id="116" value="&lt;span style=&quot;font-size: 42px;&quot;&gt;.5&lt;/span&gt;&lt;br&gt;&lt;font style=&quot;font-size: 20px;&quot;&gt;7.5cm = [295.5]&lt;/font&gt;" style="rounded=0;whiteSpace=wrap;html=1;labelBackgroundColor=none;strokeColor=#000000;strokeWidth=1;fontFamily=CMU Sans Serif;fontSize=9;fillColor=#FFE8F3;fontColor=#808080;" parent="1" vertex="1">
          <mxGeometry x="138" y="1050" width="295" height="100" as="geometry" />
        </mxCell>
        <mxCell id="119" value="&lt;span style=&quot;font-size: 42px;&quot;&gt;.5&lt;/span&gt;&lt;br&gt;&lt;font style=&quot;font-size: 20px;&quot;&gt;7.5cm = [295.5]&lt;/font&gt;" style="rounded=0;whiteSpace=wrap;html=1;labelBackgroundColor=none;strokeColor=#000000;strokeWidth=1;fontFamily=CMU Sans Serif;fontSize=9;fillColor=#FFE8F3;fontColor=#808080;" parent="1" vertex="1">
          <mxGeometry x="434" y="1050" width="295" height="100" as="geometry" />
        </mxCell>
        <mxCell id="120" value="&lt;span style=&quot;font-size: 42px;&quot;&gt;.9&lt;/span&gt;&lt;br&gt;&lt;font style=&quot;font-size: 20px;&quot;&gt;13.5cm = [532]&lt;/font&gt;" style="rounded=0;whiteSpace=wrap;html=1;labelBackgroundColor=none;strokeColor=#000000;strokeWidth=1;fontFamily=CMU Sans Serif;fontSize=9;fillColor=#FFE8F3;fontColor=#808080;" parent="1" vertex="1">
          <mxGeometry x="168" y="850" width="532" height="100" as="geometry" />
        </mxCell>
        <mxCell id="123" value="&lt;span style=&quot;font-size: 42px;&quot;&gt;.8&lt;/span&gt;&lt;br&gt;&lt;font style=&quot;font-size: 20px;&quot;&gt;120cm = [473]&lt;/font&gt;" style="rounded=0;whiteSpace=wrap;html=1;labelBackgroundColor=none;strokeColor=#000000;strokeWidth=1;fontFamily=CMU Sans Serif;fontSize=9;fillColor=#FFE8F3;fontColor=#808080;" parent="1" vertex="1">
          <mxGeometry x="197" y="950" width="473" height="100" as="geometry" />
        </mxCell>
        <mxCell id="tMVz5PTUaDFEXMntaGFA-157" value="" style="edgeStyle=orthogonalEdgeStyle;rounded=0;orthogonalLoop=1;jettySize=auto;html=1;strokeColor=#0F487D;strokeWidth=0.4;exitX=0.5;exitY=1;exitDx=0;exitDy=0;" parent="1" source="tMVz5PTUaDFEXMntaGFA-149" target="tMVz5PTUaDFEXMntaGFA-153" edge="1">
          <mxGeometry relative="1" as="geometry" />
        </mxCell>
        <mxCell id="tMVz5PTUaDFEXMntaGFA-149" value="Order" style="ellipse;whiteSpace=wrap;html=1;fontFamily=CMU Sans Serif;fillColor=#176FC1;fontColor=#FFFFFF;fontSize=11;strokeColor=#0F487D;strokeWidth=0.4;" parent="1" vertex="1">
          <mxGeometry x="116" y="160" width="60" height="40" as="geometry" />
        </mxCell>
        <mxCell id="tMVz5PTUaDFEXMntaGFA-159" value="" style="edgeStyle=orthogonalEdgeStyle;rounded=0;orthogonalLoop=1;jettySize=auto;html=1;strokeColor=#0F487D;strokeWidth=0.4;entryX=0;entryY=0.5;entryDx=0;entryDy=0;exitX=1;exitY=0.5;exitDx=0;exitDy=0;" parent="1" source="eboMnAAKwnFz1taZHxvb-123" target="tMVz5PTUaDFEXMntaGFA-158" edge="1">
          <mxGeometry relative="1" as="geometry" />
        </mxCell>
        <mxCell id="tMVz5PTUaDFEXMntaGFA-160" value="" style="edgeStyle=orthogonalEdgeStyle;rounded=0;orthogonalLoop=1;jettySize=auto;html=1;strokeColor=#7D1317;strokeWidth=0.4;" parent="1" source="tMVz5PTUaDFEXMntaGFA-154" target="tMVz5PTUaDFEXMntaGFA-158" edge="1">
          <mxGeometry relative="1" as="geometry" />
        </mxCell>
        <mxCell id="tMVz5PTUaDFEXMntaGFA-154" value="Item" style="ellipse;whiteSpace=wrap;html=1;fontFamily=CMU Sans Serif;fillColor=#D22027;fontColor=#FFFFFF;fontSize=11;strokeColor=#7D1317;strokeWidth=0.4;" parent="1" vertex="1">
          <mxGeometry x="282" y="160" width="60" height="40" as="geometry" />
        </mxCell>
        <mxCell id="tMVz5PTUaDFEXMntaGFA-177" style="edgeStyle=orthogonalEdgeStyle;rounded=0;orthogonalLoop=1;jettySize=auto;html=1;exitX=1;exitY=0.5;exitDx=0;exitDy=0;entryX=0;entryY=0.25;entryDx=0;entryDy=0;strokeColor=#A66A07;strokeWidth=0.4;" parent="1" source="tMVz5PTUaDFEXMntaGFA-155" target="tMVz5PTUaDFEXMntaGFA-161" edge="1">
          <mxGeometry relative="1" as="geometry">
            <mxPoint x="296" y="330" as="targetPoint" />
          </mxGeometry>
        </mxCell>
        <mxCell id="tMVz5PTUaDFEXMntaGFA-155" value="Pallet" style="ellipse;whiteSpace=wrap;html=1;fontFamily=CMU Sans Serif;fillColor=#F89C0E;fontColor=#FFFFFF;fontSize=11;strokeColor=#A66A07;strokeWidth=0.4;" parent="1" vertex="1">
          <mxGeometry x="201" y="260" width="60" height="40" as="geometry" />
        </mxCell>
        <mxCell id="tMVz5PTUaDFEXMntaGFA-194" style="rounded=0;orthogonalLoop=1;jettySize=auto;html=1;exitX=0.5;exitY=0;exitDx=0;exitDy=0;entryX=1;entryY=0.5;entryDx=0;entryDy=0;strokeColor=#297A79;strokeWidth=0.4;startArrow=none;startFill=0;edgeStyle=orthogonalEdgeStyle;" parent="1" source="tMVz5PTUaDFEXMntaGFA-175" target="tMVz5PTUaDFEXMntaGFA-205" edge="1">
          <mxGeometry relative="1" as="geometry">
            <mxPoint x="516" y="240" as="targetPoint" />
          </mxGeometry>
        </mxCell>
        <mxCell id="tMVz5PTUaDFEXMntaGFA-165" value="" style="edgeStyle=orthogonalEdgeStyle;rounded=0;orthogonalLoop=1;jettySize=auto;html=1;strokeColor=#7D1317;strokeWidth=0.4;" parent="1" source="tMVz5PTUaDFEXMntaGFA-158" target="tMVz5PTUaDFEXMntaGFA-164" edge="1">
          <mxGeometry relative="1" as="geometry" />
        </mxCell>
        <mxCell id="tMVz5PTUaDFEXMntaGFA-181" style="edgeStyle=orthogonalEdgeStyle;rounded=0;orthogonalLoop=1;jettySize=auto;html=1;exitX=1;exitY=0.25;exitDx=0;exitDy=0;entryX=0;entryY=0.5;entryDx=0;entryDy=0;strokeColor=#A66A07;strokeWidth=0.4;" parent="1" source="tMVz5PTUaDFEXMntaGFA-161" target="tMVz5PTUaDFEXMntaGFA-180" edge="1">
          <mxGeometry relative="1" as="geometry">
            <mxPoint x="436" y="279.9999999999999" as="sourcePoint" />
          </mxGeometry>
        </mxCell>
        <mxCell id="tMVz5PTUaDFEXMntaGFA-186" style="edgeStyle=orthogonalEdgeStyle;rounded=0;orthogonalLoop=1;jettySize=auto;html=1;strokeColor=#7D1317;strokeWidth=0;endSize=7;exitX=1;exitY=0.75;exitDx=0;exitDy=0;" parent="1" source="tMVz5PTUaDFEXMntaGFA-161" edge="1">
          <mxGeometry relative="1" as="geometry">
            <mxPoint x="467" y="296" as="sourcePoint" />
            <mxPoint x="454" y="296" as="targetPoint" />
          </mxGeometry>
        </mxCell>
        <mxCell id="tMVz5PTUaDFEXMntaGFA-198" style="edgeStyle=orthogonalEdgeStyle;rounded=0;orthogonalLoop=1;jettySize=auto;html=1;exitX=1;exitY=0.5;exitDx=0;exitDy=0;entryX=0;entryY=0.5;entryDx=0;entryDy=0;strokeColor=#0F487D;strokeWidth=0.4;" parent="1" source="tMVz5PTUaDFEXMntaGFA-158" target="tMVz5PTUaDFEXMntaGFA-197" edge="1">
          <mxGeometry relative="1" as="geometry" />
        </mxCell>
        <mxCell id="tMVz5PTUaDFEXMntaGFA-203" style="edgeStyle=orthogonalEdgeStyle;rounded=0;orthogonalLoop=1;jettySize=auto;html=1;exitX=1;exitY=0.75;exitDx=0;exitDy=0;entryX=0;entryY=0.5;entryDx=0;entryDy=0;strokeWidth=0.4;shape=link;width=1.25;strokeColor=#7D1317;" parent="1" source="tMVz5PTUaDFEXMntaGFA-161" target="tMVz5PTUaDFEXMntaGFA-185" edge="1">
          <mxGeometry relative="1" as="geometry">
            <mxPoint x="436" y="296" as="sourcePoint" />
          </mxGeometry>
        </mxCell>
        <mxCell id="tMVz5PTUaDFEXMntaGFA-166" value="" style="edgeStyle=orthogonalEdgeStyle;rounded=0;orthogonalLoop=1;jettySize=auto;html=1;strokeColor=#7D1317;entryX=0.017;entryY=0.748;entryDx=0;entryDy=0;strokeWidth=0.4;entryPerimeter=0;" parent="1" target="tMVz5PTUaDFEXMntaGFA-161" edge="1">
          <mxGeometry relative="1" as="geometry">
            <mxPoint x="366" y="296" as="sourcePoint" />
          </mxGeometry>
        </mxCell>
        <mxCell id="tMVz5PTUaDFEXMntaGFA-204" style="edgeStyle=orthogonalEdgeStyle;rounded=0;orthogonalLoop=1;jettySize=auto;html=1;exitX=1;exitY=0.5;exitDx=0;exitDy=0;entryX=0;entryY=0.75;entryDx=0;entryDy=0;strokeWidth=0.4;shape=link;width=1.25;strokeColor=#7D1317;" parent="1" source="tMVz5PTUaDFEXMntaGFA-164" target="tMVz5PTUaDFEXMntaGFA-161" edge="1">
          <mxGeometry relative="1" as="geometry" />
        </mxCell>
        <mxCell id="tMVz5PTUaDFEXMntaGFA-164" value="" style="ellipse;whiteSpace=wrap;html=1;aspect=fixed;strokeColor=#7D1317;fillColor=#D22027;strokeWidth=0.4;" parent="1" vertex="1">
          <mxGeometry x="304" y="288" width="16" height="16" as="geometry" />
        </mxCell>
        <mxCell id="tMVz5PTUaDFEXMntaGFA-202" style="rounded=0;orthogonalLoop=1;jettySize=auto;html=1;exitX=1;exitY=0.5;exitDx=0;exitDy=0;entryX=0;entryY=0.5;entryDx=0;entryDy=0;strokeWidth=0.4;shape=link;width=1.25;strokeColor=#A66A07;" parent="1" source="tMVz5PTUaDFEXMntaGFA-175" target="tMVz5PTUaDFEXMntaGFA-211" edge="1">
          <mxGeometry relative="1" as="geometry">
            <mxPoint x="622.3" y="279.99" as="targetPoint" />
          </mxGeometry>
        </mxCell>
        <mxCell id="tMVz5PTUaDFEXMntaGFA-196" style="rounded=0;orthogonalLoop=1;jettySize=auto;html=1;exitX=0.5;exitY=1;exitDx=0;exitDy=0;entryX=0.5;entryY=0;entryDx=0;entryDy=0;strokeColor=#297A79;strokeWidth=0.4;startArrow=classic;startFill=1;" parent="1" source="tMVz5PTUaDFEXMntaGFA-176" target="tMVz5PTUaDFEXMntaGFA-205" edge="1">
          <mxGeometry relative="1" as="geometry">
            <mxPoint x="540.343145750523" y="234.34314575052326" as="targetPoint" />
          </mxGeometry>
        </mxCell>
        <mxCell id="tMVz5PTUaDFEXMntaGFA-191" style="rounded=0;orthogonalLoop=1;jettySize=auto;html=1;entryX=0.017;entryY=0.508;entryDx=0;entryDy=0;strokeColor=#A66A07;strokeWidth=0;endSize=8;entryPerimeter=0;startArrow=classic;startFill=1;" parent="1" target="tMVz5PTUaDFEXMntaGFA-175" edge="1">
          <mxGeometry relative="1" as="geometry">
            <mxPoint x="473" y="280" as="sourcePoint" />
          </mxGeometry>
        </mxCell>
        <mxCell id="tMVz5PTUaDFEXMntaGFA-201" style="rounded=0;orthogonalLoop=1;jettySize=auto;html=1;exitX=1;exitY=0.5;exitDx=0;exitDy=0;entryX=0;entryY=0.5;entryDx=0;entryDy=0;strokeWidth=0.4;shape=link;width=1.25;strokeColor=#A66A07;" parent="1" source="tMVz5PTUaDFEXMntaGFA-180" target="tMVz5PTUaDFEXMntaGFA-175" edge="1">
          <mxGeometry relative="1" as="geometry" />
        </mxCell>
        <mxCell id="tMVz5PTUaDFEXMntaGFA-180" value="" style="ellipse;whiteSpace=wrap;html=1;aspect=fixed;strokeColor=#A66A07;fillColor=#F89C0E;strokeWidth=0.4;" parent="1" vertex="1">
          <mxGeometry x="468" y="272" width="16" height="16" as="geometry" />
        </mxCell>
        <mxCell id="tMVz5PTUaDFEXMntaGFA-185" value="" style="whiteSpace=wrap;html=1;aspect=fixed;fillColor=#D22027;strokeColor=#7D1317;strokeWidth=0.4;" parent="1" vertex="1">
          <mxGeometry x="453" y="293" width="6" height="6" as="geometry" />
        </mxCell>
        <mxCell id="tMVz5PTUaDFEXMntaGFA-197" value="" style="whiteSpace=wrap;html=1;aspect=fixed;fillColor=#176FC1;strokeColor=#0F487D;strokeWidth=0.4;" parent="1" vertex="1">
          <mxGeometry x="369" y="237" width="6" height="6" as="geometry" />
        </mxCell>
        <mxCell id="tMVz5PTUaDFEXMntaGFA-153" value="receive&lt;div style=&quot;font-size: 11px;&quot;&gt;order&lt;/div&gt;" style="rounded=0;whiteSpace=wrap;html=1;fontFamily=CMU Sans Serif;fontSize=11;strokeColor=default;strokeWidth=0.4;fontColor=default;align=center;verticalAlign=middle;fillColor=default;" parent="1" vertex="1">
          <mxGeometry x="116" y="224" width="60" height="32" as="geometry" />
        </mxCell>
        <mxCell id="tMVz5PTUaDFEXMntaGFA-158" value="get&lt;div&gt;item&lt;/div&gt;" style="rounded=0;whiteSpace=wrap;html=1;fontFamily=CMU Sans Serif;fontSize=11;strokeWidth=0.4;" parent="1" vertex="1">
          <mxGeometry x="282" y="224" width="60" height="32" as="geometry" />
        </mxCell>
        <mxCell id="tMVz5PTUaDFEXMntaGFA-161" value="load" style="rounded=0;whiteSpace=wrap;html=1;fontFamily=CMU Sans Serif;fontSize=11;strokeWidth=0.4;" parent="1" vertex="1">
          <mxGeometry x="366" y="272" width="60" height="32" as="geometry" />
        </mxCell>
        <mxCell id="tMVz5PTUaDFEXMntaGFA-213" style="rounded=0;orthogonalLoop=1;jettySize=auto;html=1;strokeWidth=0;strokeColor=#A66A07;endSize=7;startArrow=classic;startFill=1;" parent="1" edge="1">
          <mxGeometry relative="1" as="geometry">
            <mxPoint x="585" y="280" as="sourcePoint" />
            <mxPoint x="619" y="280" as="targetPoint" />
          </mxGeometry>
        </mxCell>
        <mxCell id="tMVz5PTUaDFEXMntaGFA-176" value="inspect" style="rounded=0;whiteSpace=wrap;html=1;fontFamily=CMU Sans Serif;fontSize=11;strokeColor=default;strokeWidth=0.4;align=center;verticalAlign=middle;fontColor=default;fillColor=default;" parent="1" vertex="1">
          <mxGeometry x="446" y="164" width="60" height="32" as="geometry" />
        </mxCell>
        <mxCell id="tMVz5PTUaDFEXMntaGFA-205" value="Vehicle" style="ellipse;whiteSpace=wrap;html=1;fontFamily=CMU Sans Serif;fillColor=#00AAAF;fontColor=#FFFFFF;fontSize=11;strokeColor=#297A79;strokeWidth=0.4;" parent="1" vertex="1">
          <mxGeometry x="446" y="220" width="60" height="40" as="geometry" />
        </mxCell>
        <mxCell id="tMVz5PTUaDFEXMntaGFA-209" style="edgeStyle=orthogonalEdgeStyle;rounded=0;orthogonalLoop=1;jettySize=auto;html=1;exitX=1;exitY=0.5;exitDx=0;exitDy=0;entryX=0;entryY=0.5;entryDx=0;entryDy=0;strokeColor=#297A79;strokeWidth=0.4;align=center;verticalAlign=middle;fontFamily=Helvetica;fontSize=11;fontColor=default;labelBackgroundColor=default;endArrow=classic;" parent="1" edge="1">
          <mxGeometry relative="1" as="geometry">
            <mxPoint x="-228.9999999999925" y="600.0000000000001" as="sourcePoint" />
          </mxGeometry>
        </mxCell>
        <mxCell id="tMVz5PTUaDFEXMntaGFA-219" style="edgeStyle=orthogonalEdgeStyle;rounded=0;orthogonalLoop=1;jettySize=auto;html=1;exitX=0.5;exitY=1;exitDx=0;exitDy=0;entryX=0.5;entryY=0;entryDx=0;entryDy=0;strokeColor=#A66A07;strokeWidth=0.4;align=center;verticalAlign=middle;fontFamily=Helvetica;fontSize=11;fontColor=default;labelBackgroundColor=default;endArrow=classic;" parent="1" source="tMVz5PTUaDFEXMntaGFA-211" target="tMVz5PTUaDFEXMntaGFA-218" edge="1">
          <mxGeometry relative="1" as="geometry" />
        </mxCell>
        <mxCell id="tMVz5PTUaDFEXMntaGFA-211" value="" style="ellipse;whiteSpace=wrap;html=1;aspect=fixed;strokeColor=#A66A07;fillColor=#F89C0E;strokeWidth=0.4;" parent="1" vertex="1">
          <mxGeometry x="618" y="272" width="16" height="16" as="geometry" />
        </mxCell>
        <mxCell id="tMVz5PTUaDFEXMntaGFA-212" value="" style="whiteSpace=wrap;html=1;aspect=fixed;fillColor=#F89C0E;strokeColor=#A66A07;strokeWidth=0.4;" parent="1" vertex="1">
          <mxGeometry x="623" y="332" width="6" height="6" as="geometry" />
        </mxCell>
        <mxCell id="tMVz5PTUaDFEXMntaGFA-175" value="deliver" style="rounded=0;whiteSpace=wrap;html=1;fontFamily=CMU Sans Serif;fontSize=11;strokeWidth=0.4;" parent="1" vertex="1">
          <mxGeometry x="526" y="264" width="60" height="32" as="geometry" />
        </mxCell>
        <mxCell id="tMVz5PTUaDFEXMntaGFA-220" style="edgeStyle=orthogonalEdgeStyle;rounded=0;orthogonalLoop=1;jettySize=auto;html=1;exitX=0.5;exitY=1;exitDx=0;exitDy=0;strokeColor=#A66A07;strokeWidth=0.4;align=center;verticalAlign=middle;fontFamily=Helvetica;fontSize=11;fontColor=default;labelBackgroundColor=default;endArrow=classic;entryX=0.5;entryY=0;entryDx=0;entryDy=0;" parent="1" source="tMVz5PTUaDFEXMntaGFA-218" target="tMVz5PTUaDFEXMntaGFA-212" edge="1">
          <mxGeometry relative="1" as="geometry">
            <mxPoint x="626" y="330" as="targetPoint" />
          </mxGeometry>
        </mxCell>
        <mxCell id="tMVz5PTUaDFEXMntaGFA-218" value="" style="rounded=0;whiteSpace=wrap;html=1;fontFamily=Helvetica;fontSize=11;strokeWidth=0.4;strokeColor=#231F20;align=center;verticalAlign=middle;fontColor=default;labelBackgroundColor=default;fillColor=#FFFFFF;" parent="1" vertex="1">
          <mxGeometry x="623" y="307" width="6" height="6" as="geometry" />
        </mxCell>
        <mxCell id="eboMnAAKwnFz1taZHxvb-123" value="" style="ellipse;whiteSpace=wrap;html=1;aspect=fixed;strokeColor=#0F487D;fillColor=#176FC1;strokeWidth=0.4;" parent="1" vertex="1">
          <mxGeometry x="223" y="232" width="16" height="16" as="geometry" />
        </mxCell>
        <mxCell id="eboMnAAKwnFz1taZHxvb-124" value="" style="edgeStyle=orthogonalEdgeStyle;rounded=0;orthogonalLoop=1;jettySize=auto;html=1;strokeColor=#0F487D;strokeWidth=0.4;exitX=1;exitY=0.5;exitDx=0;exitDy=0;entryX=0;entryY=0.5;entryDx=0;entryDy=0;" parent="1" source="tMVz5PTUaDFEXMntaGFA-153" target="eboMnAAKwnFz1taZHxvb-123" edge="1">
          <mxGeometry relative="1" as="geometry">
            <mxPoint x="262" y="250" as="sourcePoint" />
            <mxPoint x="236" y="240" as="targetPoint" />
          </mxGeometry>
        </mxCell>
        <mxCell id="eboMnAAKwnFz1taZHxvb-125" style="rounded=0;orthogonalLoop=1;jettySize=auto;html=1;exitX=0;exitY=0.5;exitDx=0;exitDy=0;entryX=0.5;entryY=0;entryDx=0;entryDy=0;strokeColor=#297A79;strokeWidth=0.4;startArrow=none;startFill=0;edgeStyle=orthogonalEdgeStyle;" parent="1" source="tMVz5PTUaDFEXMntaGFA-205" target="tMVz5PTUaDFEXMntaGFA-161" edge="1">
          <mxGeometry relative="1" as="geometry">
            <mxPoint x="506" y="240" as="sourcePoint" />
            <mxPoint x="546" y="274" as="targetPoint" />
          </mxGeometry>
        </mxCell>
        <mxCell id="eboMnAAKwnFz1taZHxvb-126" value="" style="ellipse;whiteSpace=wrap;html=1;aspect=fixed;strokeColor=#297A79;fillColor=#00AAAF;strokeWidth=0.4;align=center;verticalAlign=middle;fontFamily=CMU Sans Serif;fontSize=11;fontColor=#FFFFFF;" parent="1" vertex="1">
          <mxGeometry x="468" y="322" width="16" height="16" as="geometry" />
        </mxCell>
        <mxCell id="eboMnAAKwnFz1taZHxvb-127" style="rounded=0;orthogonalLoop=1;jettySize=auto;html=1;exitX=0.5;exitY=1;exitDx=0;exitDy=0;entryX=0;entryY=0.5;entryDx=0;entryDy=0;strokeColor=#297A79;strokeWidth=0.4;startArrow=classic;startFill=1;edgeStyle=orthogonalEdgeStyle;" parent="1" source="tMVz5PTUaDFEXMntaGFA-161" target="eboMnAAKwnFz1taZHxvb-126" edge="1">
          <mxGeometry relative="1" as="geometry">
            <mxPoint x="406" y="282" as="sourcePoint" />
            <mxPoint x="446" y="240" as="targetPoint" />
          </mxGeometry>
        </mxCell>
        <mxCell id="eboMnAAKwnFz1taZHxvb-128" style="rounded=0;orthogonalLoop=1;jettySize=auto;html=1;exitX=1;exitY=0.5;exitDx=0;exitDy=0;entryX=0.5;entryY=1;entryDx=0;entryDy=0;strokeColor=#297A79;strokeWidth=0.4;startArrow=classic;startFill=1;edgeStyle=orthogonalEdgeStyle;" parent="1" source="eboMnAAKwnFz1taZHxvb-126" target="tMVz5PTUaDFEXMntaGFA-175" edge="1">
          <mxGeometry relative="1" as="geometry">
            <mxPoint x="406" y="314" as="sourcePoint" />
            <mxPoint x="468" y="340" as="targetPoint" />
          </mxGeometry>
        </mxCell>
      </root>
    </mxGraphModel>
  </diagram>
</mxfile>
